<svg id="visual" viewBox="0 0 900 600" width="900" height="600" xmlns="http://www.w3.org/2000/svg" xmlns:xlink="http://www.w3.org/1999/xlink" version="1.1"><g stroke-width="1" stroke-linejoin="bevel"><path d="M458 302.9L468 253.3L438 238.4Z" fill="#00285b" stroke="#00285b"></path><path d="M513 315.9L473 239.1L468 253.3Z" fill="#7829a6" stroke="#7829a6"></path><path d="M468 253.3L473 239.1L438 238.4Z" fill="#00101c" stroke="#00101c"></path><path d="M438 238.4L381 288.9L458 302.9Z" fill="#001d3b" stroke="#001d3b"></path><path d="M387 244.4L381 288.9L438 238.4Z" fill="#002c6a" stroke="#002c6a"></path><path d="M381 288.9L409 327.9L458 302.9Z" fill="#7829a6" stroke="#7829a6"></path><path d="M474 215.1L437 209.3L438 238.4Z" fill="#00234b" stroke="#00234b"></path><path d="M438 238.4L437 209.3L387 244.4Z" fill="#00101c" stroke="#00101c"></path><path d="M381 288.9L390 319L409 327.9Z" fill="#7829a6" stroke="#7829a6"></path><path d="M473 239.1L474 215.1L438 238.4Z" fill="#00234b" stroke="#00234b"></path><path d="M460 200.1L435 205.3L437 209.3Z" fill="#002c6a" stroke="#002c6a"></path><path d="M437 209.3L435 205.3L387 244.4Z" fill="#5f2f9d" stroke="#5f2f9d"></path><path d="M474 215.1L460 200.1L437 209.3Z" fill="#00285b" stroke="#00285b"></path><path d="M476 353.6L513 315.9L458 302.9Z" fill="#5f2f9d" stroke="#5f2f9d"></path><path d="M458 302.9L513 315.9L468 253.3Z" fill="#1a2f79" stroke="#1a2f79"></path><path d="M473 239.1L488 202.4L474 215.1Z" fill="#00285b" stroke="#00285b"></path><path d="M536 184.1L488 202.4L564 228.1Z" fill="#00285b" stroke="#00285b"></path><path d="M474 215.1L488 202.4L460 200.1Z" fill="#7829a6" stroke="#7829a6"></path><path d="M409 327.9L476 353.6L458 302.9Z" fill="#313187" stroke="#313187"></path><path d="M340 231L351 249.1L387 244.4Z" fill="#00234b" stroke="#00234b"></path><path d="M387 244.4L351 249.1L381 288.9Z" fill="#7829a6" stroke="#7829a6"></path><path d="M381 288.9L334 283L390 319Z" fill="#001d3b" stroke="#001d3b"></path><path d="M351 249.1L342 272L381 288.9Z" fill="#001d3b" stroke="#001d3b"></path><path d="M476 353.6L525 328.9L513 315.9Z" fill="#00234b" stroke="#00234b"></path><path d="M536 184.1L504 169.6L488 202.4Z" fill="#00234b" stroke="#00234b"></path><path d="M327 277.1L334 283L342 272Z" fill="#00172b" stroke="#00172b"></path><path d="M342 272L334 283L381 288.9Z" fill="#00172b" stroke="#00172b"></path><path d="M388 153.4L340 231L387 244.4Z" fill="#5f2f9d" stroke="#5f2f9d"></path><path d="M351 249.1L327 277.1L342 272Z" fill="#001d3b" stroke="#001d3b"></path><path d="M340 231L327 277.1L351 249.1Z" fill="#5f2f9d" stroke="#5f2f9d"></path><path d="M356 153.3L329 221.3L340 231Z" fill="#002c6a" stroke="#002c6a"></path><path d="M340 231L295 267L327 277.1Z" fill="#7829a6" stroke="#7829a6"></path><path d="M388 153.4L387 244.4L435 205.3Z" fill="#5f2f9d" stroke="#5f2f9d"></path><path d="M488 202.4L473 239.1L564 228.1Z" fill="#313187" stroke="#313187"></path><path d="M488 202.4L504 169.6L460 200.1Z" fill="#002c6a" stroke="#002c6a"></path><path d="M460 200.1L388 153.4L435 205.3Z" fill="#00234b" stroke="#00234b"></path><path d="M463 424.6L505 380.6L476 353.6Z" fill="#7829a6" stroke="#7829a6"></path><path d="M476 353.6L505 380.6L525 328.9Z" fill="#1a2f79" stroke="#1a2f79"></path><path d="M426 409.7L476 353.6L409 327.9Z" fill="#00285b" stroke="#00285b"></path><path d="M505 380.6L539 351.7L525 328.9Z" fill="#7829a6" stroke="#7829a6"></path><path d="M564 228.1L473 239.1L575 269Z" fill="#00101c" stroke="#00101c"></path><path d="M570 342L540 351L573 371.6Z" fill="#00234b" stroke="#00234b"></path><path d="M539 351.7L540 351L525 328.9Z" fill="#313187" stroke="#313187"></path><path d="M399 120.6L388 153.4L453 107.6Z" fill="#002c6a" stroke="#002c6a"></path><path d="M473 239.1L513 315.9L575 269Z" fill="#002c6a" stroke="#002c6a"></path><path d="M575 269L513 315.9L525 328.9Z" fill="#001d3b" stroke="#001d3b"></path><path d="M289 309.7L316 323.9L327 277.1Z" fill="#001d3b" stroke="#001d3b"></path><path d="M327 277.1L316 323.9L334 283Z" fill="#001d3b" stroke="#001d3b"></path><path d="M334 283L316 323.9L390 319Z" fill="#00172b" stroke="#00172b"></path><path d="M319 380.7L426 409.7L409 327.9Z" fill="#00234b" stroke="#00234b"></path><path d="M570 342L575 269L525 328.9Z" fill="#002c6a" stroke="#002c6a"></path><path d="M319 380.7L409 327.9L390 319Z" fill="#7829a6" stroke="#7829a6"></path><path d="M329 221.3L295 267L340 231Z" fill="#313187" stroke="#313187"></path><path d="M388 153.4L356 153.3L340 231Z" fill="#1a2f79" stroke="#1a2f79"></path><path d="M329 221.3L269 228.1L295 267Z" fill="#002c6a" stroke="#002c6a"></path><path d="M588 342.7L570 342L573 371.6Z" fill="#483193" stroke="#483193"></path><path d="M540 351L570 342L525 328.9Z" fill="#00285b" stroke="#00285b"></path><path d="M668 328.9L590 253.3L575 269Z" fill="#00234b" stroke="#00234b"></path><path d="M575 269L590 253.3L564 228.1Z" fill="#313187" stroke="#313187"></path><path d="M564 228.1L593 205.3L536 184.1Z" fill="#1a2f79" stroke="#1a2f79"></path><path d="M426 409.7L463 424.6L476 353.6Z" fill="#7829a6" stroke="#7829a6"></path><path d="M573 371.6L540 351L539 351.7Z" fill="#1a2f79" stroke="#1a2f79"></path><path d="M295 267L289 309.7L327 277.1Z" fill="#1a2f79" stroke="#1a2f79"></path><path d="M316 323.9L319 380.7L390 319Z" fill="#7829a6" stroke="#7829a6"></path><path d="M289 309.7L307 356.6L316 323.9Z" fill="#313187" stroke="#313187"></path><path d="M478 466.3L468 427.4L463 424.6Z" fill="#00172b" stroke="#00172b"></path><path d="M463 424.6L468 427.4L505 380.6Z" fill="#483193" stroke="#483193"></path><path d="M453 107.6L388 153.4L460 200.1Z" fill="#5f2f9d" stroke="#5f2f9d"></path><path d="M388 153.4L399 120.6L356 153.3Z" fill="#483193" stroke="#483193"></path><path d="M479 114.9L460 200.1L504 169.6Z" fill="#002c6a" stroke="#002c6a"></path><path d="M590 253.3L590 223.3L564 228.1Z" fill="#00101c" stroke="#00101c"></path><path d="M307 356.6L319 380.7L316 323.9Z" fill="#00234b" stroke="#00234b"></path><path d="M447 486.3L478 466.3L463 424.6Z" fill="#5f2f9d" stroke="#5f2f9d"></path><path d="M520 122.4L517 131.6L536 184.1Z" fill="#00234b" stroke="#00234b"></path><path d="M536 184.1L517 131.6L504 169.6Z" fill="#1a2f79" stroke="#1a2f79"></path><path d="M517 131.6L479 114.9L504 169.6Z" fill="#00101c" stroke="#00101c"></path><path d="M573 371.6L539 351.7L560 415.7Z" fill="#00172b" stroke="#00172b"></path><path d="M570 342L588 342.7L575 269Z" fill="#7829a6" stroke="#7829a6"></path><path d="M560 415.7L539 351.7L505 380.6Z" fill="#001d3b" stroke="#001d3b"></path><path d="M479 114.9L453 107.6L460 200.1Z" fill="#5f2f9d" stroke="#5f2f9d"></path><path d="M622 205.1L593 205.3L590 223.3Z" fill="#002c6a" stroke="#002c6a"></path><path d="M590 223.3L593 205.3L564 228.1Z" fill="#00172b" stroke="#00172b"></path><path d="M626 233.4L590 223.3L590 253.3Z" fill="#5f2f9d" stroke="#5f2f9d"></path><path d="M609 181.6L520 122.4L536 184.1Z" fill="#7829a6" stroke="#7829a6"></path><path d="M517 131.6L520 122.4L479 114.9Z" fill="#5f2f9d" stroke="#5f2f9d"></path><path d="M479 114.9L480 77.7L453 107.6Z" fill="#00101c" stroke="#00101c"></path><path d="M297 172.4L299 172.6L279 155.6Z" fill="#00285b" stroke="#00285b"></path><path d="M356 153.3L299 172.6L329 221.3Z" fill="#00172b" stroke="#00172b"></path><path d="M295 267L264 290.1L289 309.7Z" fill="#5f2f9d" stroke="#5f2f9d"></path><path d="M279 155.6L299 172.6L321 87.6Z" fill="#002c6a" stroke="#002c6a"></path><path d="M299 172.6L269 228.1L329 221.3Z" fill="#483193" stroke="#483193"></path><path d="M307 356.6L310 391.9L319 380.7Z" fill="#483193" stroke="#483193"></path><path d="M319 380.7L360 437.4L426 409.7Z" fill="#1a2f79" stroke="#1a2f79"></path><path d="M297 398.7L310 391.9L307 356.6Z" fill="#1a2f79" stroke="#1a2f79"></path><path d="M269 228.1L264 290.1L295 267Z" fill="#5f2f9d" stroke="#5f2f9d"></path><path d="M289 309.7L235 368.9L307 356.6Z" fill="#483193" stroke="#483193"></path><path d="M297 172.4L269 228.1L299 172.6Z" fill="#00172b" stroke="#00172b"></path><path d="M331 428.6L360 437.4L319 380.7Z" fill="#002c6a" stroke="#002c6a"></path><path d="M468 427.4L560 415.7L505 380.6Z" fill="#00234b" stroke="#00234b"></path><path d="M573 371.6L617 399.9L588 342.7Z" fill="#00172b" stroke="#00172b"></path><path d="M453 107.6L383 93.7L399 120.6Z" fill="#001d3b" stroke="#001d3b"></path><path d="M399 120.6L383 93.7L356 153.3Z" fill="#00101c" stroke="#00101c"></path><path d="M310 391.9L331 428.6L319 380.7Z" fill="#001d3b" stroke="#001d3b"></path><path d="M235 368.9L297 398.7L307 356.6Z" fill="#00234b" stroke="#00234b"></path><path d="M310 391.9L297 398.7L331 428.6Z" fill="#483193" stroke="#483193"></path><path d="M668 328.9L626 233.4L590 253.3Z" fill="#313187" stroke="#313187"></path><path d="M593 205.3L609 181.6L536 184.1Z" fill="#00101c" stroke="#00101c"></path><path d="M622 205.1L609 181.6L593 205.3Z" fill="#5f2f9d" stroke="#5f2f9d"></path><path d="M626 233.4L622 205.1L590 223.3Z" fill="#5f2f9d" stroke="#5f2f9d"></path><path d="M331 428.6L354 449.7L360 437.4Z" fill="#313187" stroke="#313187"></path><path d="M360 437.4L419 472.6L426 409.7Z" fill="#313187" stroke="#313187"></path><path d="M468 427.4L510 480.3L560 415.7Z" fill="#00234b" stroke="#00234b"></path><path d="M283 474.3L354 449.7L331 428.6Z" fill="#7829a6" stroke="#7829a6"></path><path d="M419 472.6L463 424.6L426 409.7Z" fill="#00234b" stroke="#00234b"></path><path d="M321 87.6L299 172.6L356 153.3Z" fill="#00285b" stroke="#00285b"></path><path d="M263 174.4L250 206.1L269 228.1Z" fill="#00101c" stroke="#00101c"></path><path d="M463 23.9L480 77.7L521 10.7Z" fill="#5f2f9d" stroke="#5f2f9d"></path><path d="M520 122.4L480 77.7L479 114.9Z" fill="#1a2f79" stroke="#1a2f79"></path><path d="M453 107.6L384 61.7L383 93.7Z" fill="#00234b" stroke="#00234b"></path><path d="M354 449.7L419 472.6L360 437.4Z" fill="#00285b" stroke="#00285b"></path><path d="M263 174.4L269 228.1L297 172.4Z" fill="#7829a6" stroke="#7829a6"></path><path d="M269 228.1L214 266.3L264 290.1Z" fill="#00172b" stroke="#00172b"></path><path d="M279 155.6L263 174.4L297 172.4Z" fill="#483193" stroke="#483193"></path><path d="M419 502.1L447 486.3L419 472.6Z" fill="#313187" stroke="#313187"></path><path d="M419 472.6L447 486.3L463 424.6Z" fill="#00234b" stroke="#00234b"></path><path d="M478 466.3L510 480.3L468 427.4Z" fill="#5f2f9d" stroke="#5f2f9d"></path><path d="M447 486.3L471 485.1L478 466.3Z" fill="#483193" stroke="#483193"></path><path d="M321 87.6L266 145.6L279 155.6Z" fill="#00101c" stroke="#00101c"></path><path d="M279 155.6L266 145.6L263 174.4Z" fill="#1a2f79" stroke="#1a2f79"></path><path d="M263 174.4L217 189.3L250 206.1Z" fill="#7829a6" stroke="#7829a6"></path><path d="M242 451.6L295 435.6L297 398.7Z" fill="#7829a6" stroke="#7829a6"></path><path d="M297 398.7L295 435.6L331 428.6Z" fill="#001d3b" stroke="#001d3b"></path><path d="M370 495.1L419 502.1L419 472.6Z" fill="#7829a6" stroke="#7829a6"></path><path d="M560 415.7L617 399.9L573 371.6Z" fill="#001d3b" stroke="#001d3b"></path><path d="M588 342.7L668 328.9L575 269Z" fill="#00234b" stroke="#00234b"></path><path d="M568 474.3L617 399.9L560 415.7Z" fill="#00285b" stroke="#00285b"></path><path d="M471 485.1L510 480.3L478 466.3Z" fill="#5f2f9d" stroke="#5f2f9d"></path><path d="M463 23.9L384 61.7L453 107.6Z" fill="#001d3b" stroke="#001d3b"></path><path d="M383 93.7L321 87.6L356 153.3Z" fill="#1a2f79" stroke="#1a2f79"></path><path d="M384 61.7L321 87.6L383 93.7Z" fill="#00172b" stroke="#00172b"></path><path d="M553 510.1L519 547.4L556 529.4Z" fill="#00101c" stroke="#00101c"></path><path d="M510 480.3L522 482.4L560 415.7Z" fill="#00101c" stroke="#00101c"></path><path d="M209 261.3L269 228.1L250 206.1Z" fill="#5f2f9d" stroke="#5f2f9d"></path><path d="M209 261.3L214 266.3L269 228.1Z" fill="#00285b" stroke="#00285b"></path><path d="M264 290.1L235 368.9L289 309.7Z" fill="#00172b" stroke="#00172b"></path><path d="M205 324L235 368.9L264 290.1Z" fill="#00101c" stroke="#00101c"></path><path d="M641 160.4L635 156.7L609 181.6Z" fill="#313187" stroke="#313187"></path><path d="M609 181.6L585 67.9L520 122.4Z" fill="#00285b" stroke="#00285b"></path><path d="M641 160.4L609 181.6L622 205.1Z" fill="#483193" stroke="#483193"></path><path d="M641 160.4L622 205.1L689 165.3Z" fill="#7829a6" stroke="#7829a6"></path><path d="M617 399.9L656 344.7L588 342.7Z" fill="#00101c" stroke="#00101c"></path><path d="M370 495.1L419 472.6L354 449.7Z" fill="#001d3b" stroke="#001d3b"></path><path d="M447 486.3L519 547.4L471 485.1Z" fill="#1a2f79" stroke="#1a2f79"></path><path d="M553 510.1L522 482.4L519 547.4Z" fill="#483193" stroke="#483193"></path><path d="M217 189.3L209 261.3L250 206.1Z" fill="#00172b" stroke="#00172b"></path><path d="M214 266.3L205 324L264 290.1Z" fill="#313187" stroke="#313187"></path><path d="M679 235.4L622 205.1L626 233.4Z" fill="#7829a6" stroke="#7829a6"></path><path d="M283 474.3L370 495.1L354 449.7Z" fill="#002c6a" stroke="#002c6a"></path><path d="M698 364L668 328.9L656 344.7Z" fill="#313187" stroke="#313187"></path><path d="M656 344.7L668 328.9L588 342.7Z" fill="#00101c" stroke="#00101c"></path><path d="M210 147.6L263 174.4L266 145.6Z" fill="#00285b" stroke="#00285b"></path><path d="M210 147.6L217 189.3L263 174.4Z" fill="#313187" stroke="#313187"></path><path d="M569 485.3L568 474.3L522 482.4Z" fill="#002c6a" stroke="#002c6a"></path><path d="M522 482.4L568 474.3L560 415.7Z" fill="#00234b" stroke="#00234b"></path><path d="M617 399.9L660 374L656 344.7Z" fill="#00101c" stroke="#00101c"></path><path d="M183 265L205 324L214 266.3Z" fill="#5f2f9d" stroke="#5f2f9d"></path><path d="M675 407.6L660 374L617 399.9Z" fill="#001d3b" stroke="#001d3b"></path><path d="M668 328.9L679 235.4L626 233.4Z" fill="#002c6a" stroke="#002c6a"></path><path d="M205 324L216 371.7L235 368.9Z" fill="#5f2f9d" stroke="#5f2f9d"></path><path d="M235 368.9L242 451.6L297 398.7Z" fill="#00285b" stroke="#00285b"></path><path d="M553 510.1L569 485.3L522 482.4Z" fill="#00172b" stroke="#00172b"></path><path d="M646 460.6L649 434.4L617 399.9Z" fill="#7829a6" stroke="#7829a6"></path><path d="M569 485.3L577 482.6L568 474.3Z" fill="#00172b" stroke="#00172b"></path><path d="M552 44.9L480 77.7L520 122.4Z" fill="#00285b" stroke="#00285b"></path><path d="M480 77.7L463 23.9L453 107.6Z" fill="#00234b" stroke="#00234b"></path><path d="M332 24.7L300 60.7L321 87.6Z" fill="#00101c" stroke="#00101c"></path><path d="M585 67.9L609 181.6L635 156.7Z" fill="#00234b" stroke="#00234b"></path><path d="M698 364L686 319L668 328.9Z" fill="#00172b" stroke="#00172b"></path><path d="M668 328.9L686 319L679 235.4Z" fill="#00234b" stroke="#00234b"></path><path d="M655 119.6L585 67.9L635 156.7Z" fill="#00234b" stroke="#00234b"></path><path d="M332 24.7L321 87.6L384 61.7Z" fill="#00285b" stroke="#00285b"></path><path d="M321 87.6L248 104.4L266 145.6Z" fill="#313187" stroke="#313187"></path><path d="M261 473.4L283 474.3L295 435.6Z" fill="#00101c" stroke="#00101c"></path><path d="M295 435.6L283 474.3L331 428.6Z" fill="#00285b" stroke="#00285b"></path><path d="M585 67.9L552 44.9L520 122.4Z" fill="#00285b" stroke="#00285b"></path><path d="M300 60.7L248 104.4L321 87.6Z" fill="#001d3b" stroke="#001d3b"></path><path d="M175 217.3L183 265L209 261.3Z" fill="#002c6a" stroke="#002c6a"></path><path d="M209 261.3L183 265L214 266.3Z" fill="#313187" stroke="#313187"></path><path d="M205 324L193 355.9L216 371.7Z" fill="#002c6a" stroke="#002c6a"></path><path d="M175 217.3L209 261.3L217 189.3Z" fill="#5f2f9d" stroke="#5f2f9d"></path><path d="M408 0L373 22.7L384 61.7Z" fill="#5f2f9d" stroke="#5f2f9d"></path><path d="M176 359.7L193 355.9L205 324Z" fill="#00101c" stroke="#00101c"></path><path d="M216 371.7L242 451.6L235 368.9Z" fill="#313187" stroke="#313187"></path><path d="M248 104.4L210 147.6L266 145.6Z" fill="#001d3b" stroke="#001d3b"></path><path d="M689 165.3L663 135.6L641 160.4Z" fill="#7829a6" stroke="#7829a6"></path><path d="M641 160.4L663 135.6L635 156.7Z" fill="#001d3b" stroke="#001d3b"></path><path d="M522 482.4L510 480.3L519 547.4Z" fill="#00101c" stroke="#00101c"></path><path d="M569 485.3L553 510.1L577 482.6Z" fill="#00172b" stroke="#00172b"></path><path d="M617 486.1L617 399.9L568 474.3Z" fill="#001d3b" stroke="#001d3b"></path><path d="M660 374L698 364L656 344.7Z" fill="#001d3b" stroke="#001d3b"></path><path d="M617 486.1L568 474.3L577 482.6Z" fill="#002c6a" stroke="#002c6a"></path><path d="M663 135.6L655 119.6L635 156.7Z" fill="#7829a6" stroke="#7829a6"></path><path d="M227 475.6L242 451.6L178 414.9Z" fill="#7829a6" stroke="#7829a6"></path><path d="M686 319L706 251.1L679 235.4Z" fill="#5f2f9d" stroke="#5f2f9d"></path><path d="M679 235.4L689 165.3L622 205.1Z" fill="#00285b" stroke="#00285b"></path><path d="M242 451.6L261 473.4L295 435.6Z" fill="#001d3b" stroke="#001d3b"></path><path d="M302 523.3L394 538.4L370 495.1Z" fill="#313187" stroke="#313187"></path><path d="M302 523.3L370 495.1L283 474.3Z" fill="#00234b" stroke="#00234b"></path><path d="M370 495.1L394 538.4L419 502.1Z" fill="#00234b" stroke="#00234b"></path><path d="M419 502.1L519 547.4L447 486.3Z" fill="#313187" stroke="#313187"></path><path d="M210 147.6L175 217.3L217 189.3Z" fill="#002c6a" stroke="#002c6a"></path><path d="M121 321.9L176 359.7L205 324Z" fill="#7829a6" stroke="#7829a6"></path><path d="M373 22.7L332 24.7L384 61.7Z" fill="#483193" stroke="#483193"></path><path d="M300 60.7L234 61.7L248 104.4Z" fill="#00172b" stroke="#00172b"></path><path d="M649 434.4L675 407.6L617 399.9Z" fill="#5f2f9d" stroke="#5f2f9d"></path><path d="M686 319L722 283.3L706 251.1Z" fill="#00172b" stroke="#00172b"></path><path d="M715 207.3L689 165.3L679 235.4Z" fill="#7829a6" stroke="#7829a6"></path><path d="M663 135.6L685 96.7L655 119.6Z" fill="#001d3b" stroke="#001d3b"></path><path d="M490 0L439 0L463 23.9Z" fill="#5f2f9d" stroke="#5f2f9d"></path><path d="M463 23.9L428 0L384 61.7Z" fill="#7829a6" stroke="#7829a6"></path><path d="M373 22.7L363 0L332 24.7Z" fill="#483193" stroke="#483193"></path><path d="M439 0L428 0L463 23.9Z" fill="#5f2f9d" stroke="#5f2f9d"></path><path d="M675 407.6L698 364L660 374Z" fill="#7829a6" stroke="#7829a6"></path><path d="M531 0L521 10.7L554 0Z" fill="#313187" stroke="#313187"></path><path d="M552 44.9L521 10.7L480 77.7Z" fill="#5f2f9d" stroke="#5f2f9d"></path><path d="M521 10.7L552 44.9L554 0Z" fill="#002c6a" stroke="#002c6a"></path><path d="M428 0L408 0L384 61.7Z" fill="#313187" stroke="#313187"></path><path d="M556 529.4L617 486.1L577 482.6Z" fill="#313187" stroke="#313187"></path><path d="M649 434.4L696 450.7L675 407.6Z" fill="#7829a6" stroke="#7829a6"></path><path d="M121 321.9L205 324L183 265Z" fill="#1a2f79" stroke="#1a2f79"></path><path d="M193 355.9L176 359.7L216 371.7Z" fill="#5f2f9d" stroke="#5f2f9d"></path><path d="M521 10.7L490 0L463 23.9Z" fill="#5f2f9d" stroke="#5f2f9d"></path><path d="M626 482.3L646 460.6L617 399.9Z" fill="#00101c" stroke="#00101c"></path><path d="M408 0L384 0L373 22.7Z" fill="#002c6a" stroke="#002c6a"></path><path d="M617 486.1L626 482.3L617 399.9Z" fill="#00101c" stroke="#00101c"></path><path d="M519 547.4L510 480.3L471 485.1Z" fill="#5f2f9d" stroke="#5f2f9d"></path><path d="M553 510.1L556 529.4L577 482.6Z" fill="#00172b" stroke="#00172b"></path><path d="M617 486.1L648 516.1L626 482.3Z" fill="#1a2f79" stroke="#1a2f79"></path><path d="M729 310.9L722 283.3L686 319Z" fill="#001d3b" stroke="#001d3b"></path><path d="M706 251.1L715 207.3L679 235.4Z" fill="#00285b" stroke="#00285b"></path><path d="M748 201.1L715 207.3L706 251.1Z" fill="#001d3b" stroke="#001d3b"></path><path d="M384 0L363 0L373 22.7Z" fill="#002c6a" stroke="#002c6a"></path><path d="M288 541.4L302 523.3L272 534.1Z" fill="#00285b" stroke="#00285b"></path><path d="M272 534.1L302 523.3L283 474.3Z" fill="#002c6a" stroke="#002c6a"></path><path d="M446 600L519 547.4L419 502.1Z" fill="#002c6a" stroke="#002c6a"></path><path d="M698 364L718 338.7L686 319Z" fill="#5f2f9d" stroke="#5f2f9d"></path><path d="M764 343.9L718 338.7L698 364Z" fill="#483193" stroke="#483193"></path><path d="M696 450.7L698 364L675 407.6Z" fill="#483193" stroke="#483193"></path><path d="M227 475.6L240 479.3L242 451.6Z" fill="#001d3b" stroke="#001d3b"></path><path d="M242 451.6L240 479.3L261 473.4Z" fill="#001d3b" stroke="#001d3b"></path><path d="M554 0L552 44.9L611 17.9Z" fill="#00285b" stroke="#00285b"></path><path d="M521 10.7L531 0L490 0Z" fill="#001d3b" stroke="#001d3b"></path><path d="M146 227L152 240.4L175 217.3Z" fill="#00234b" stroke="#00234b"></path><path d="M175 217.3L152 240.4L183 265Z" fill="#00101c" stroke="#00101c"></path><path d="M718 338.7L729 310.9L686 319Z" fill="#7829a6" stroke="#7829a6"></path><path d="M748 201.1L736 171.4L715 207.3Z" fill="#00172b" stroke="#00172b"></path><path d="M178 414.9L242 451.6L216 371.7Z" fill="#00285b" stroke="#00285b"></path><path d="M272 534.1L283 474.3L261 473.4Z" fill="#7829a6" stroke="#7829a6"></path><path d="M408 0L383 -15.1L384 0Z" fill="#001d3b" stroke="#001d3b"></path><path d="M384 0L383 -15.1L363 0Z" fill="#483193" stroke="#483193"></path><path d="M428 0L383 -15.1L408 0Z" fill="#5f2f9d" stroke="#5f2f9d"></path><path d="M439 0L383 -15.1L428 0Z" fill="#7829a6" stroke="#7829a6"></path><path d="M538 -27.1L383 -15.1L439 0Z" fill="#00172b" stroke="#00172b"></path><path d="M365 -23.1L383 -15.1L538 -27.1Z" fill="#313187" stroke="#313187"></path><path d="M302 523.3L391 564.1L394 538.4Z" fill="#00234b" stroke="#00234b"></path><path d="M394 538.4L446 600L419 502.1Z" fill="#00101c" stroke="#00101c"></path><path d="M265 0L234 61.7L300 60.7Z" fill="#5f2f9d" stroke="#5f2f9d"></path><path d="M248 104.4L173 59.9L210 147.6Z" fill="#00101c" stroke="#00101c"></path><path d="M110 209.3L146 227L120 160.6Z" fill="#7829a6" stroke="#7829a6"></path><path d="M265 0L300 60.7L332 24.7Z" fill="#5f2f9d" stroke="#5f2f9d"></path><path d="M329 -11.1L332 24.7L363 0Z" fill="#00172b" stroke="#00172b"></path><path d="M611 17.9L552 44.9L585 67.9Z" fill="#002c6a" stroke="#002c6a"></path><path d="M538 -27.1L439 0L490 0Z" fill="#5f2f9d" stroke="#5f2f9d"></path><path d="M146 227L175 217.3L120 160.6Z" fill="#002c6a" stroke="#002c6a"></path><path d="M152 240.4L121 321.9L183 265Z" fill="#001d3b" stroke="#001d3b"></path><path d="M118 334.7L178 414.9L176 359.7Z" fill="#7829a6" stroke="#7829a6"></path><path d="M176 359.7L178 414.9L216 371.7Z" fill="#1a2f79" stroke="#1a2f79"></path><path d="M689 165.3L685 96.7L663 135.6Z" fill="#1a2f79" stroke="#1a2f79"></path><path d="M655 119.6L663 55.7L585 67.9Z" fill="#1a2f79" stroke="#1a2f79"></path><path d="M736 171.4L685 96.7L689 165.3Z" fill="#483193" stroke="#483193"></path><path d="M365 -23.1L329 -11.1L363 0Z" fill="#00234b" stroke="#00234b"></path><path d="M538 -27.1L490 0L531 0Z" fill="#00101c" stroke="#00101c"></path><path d="M383 -15.1L365 -23.1L363 0Z" fill="#1a2f79" stroke="#1a2f79"></path><path d="M656 34.7L611 17.9L585 67.9Z" fill="#1a2f79" stroke="#1a2f79"></path><path d="M272 534.1L261 473.4L229 503.3Z" fill="#313187" stroke="#313187"></path><path d="M302 523.3L288 541.4L391 564.1Z" fill="#483193" stroke="#483193"></path><path d="M229 503.3L240 479.3L227 475.6Z" fill="#313187" stroke="#313187"></path><path d="M229 503.3L261 473.4L240 479.3Z" fill="#1a2f79" stroke="#1a2f79"></path><path d="M195 483.4L229 503.3L227 475.6Z" fill="#7829a6" stroke="#7829a6"></path><path d="M687 463.4L649 434.4L646 460.6Z" fill="#313187" stroke="#313187"></path><path d="M687 463.4L696 450.7L649 434.4Z" fill="#1a2f79" stroke="#1a2f79"></path><path d="M718 338.7L752 315.7L729 310.9Z" fill="#1a2f79" stroke="#1a2f79"></path><path d="M687 463.4L646 460.6L648 516.1Z" fill="#313187" stroke="#313187"></path><path d="M685 96.7L663 55.7L655 119.6Z" fill="#00234b" stroke="#00234b"></path><path d="M648 516.1L646 460.6L626 482.3Z" fill="#00101c" stroke="#00101c"></path><path d="M715 207.3L736 171.4L689 165.3Z" fill="#00234b" stroke="#00234b"></path><path d="M720 51.9L656 34.7L663 55.7Z" fill="#001d3b" stroke="#001d3b"></path><path d="M748 201.1L706 251.1L773 239Z" fill="#00234b" stroke="#00234b"></path><path d="M764 343.9L752 315.7L718 338.7Z" fill="#00101c" stroke="#00101c"></path><path d="M729 310.9L752 315.7L722 283.3Z" fill="#1a2f79" stroke="#1a2f79"></path><path d="M636 0L538 -27.1L554 0Z" fill="#00285b" stroke="#00285b"></path><path d="M554 0L538 -27.1L531 0Z" fill="#483193" stroke="#483193"></path><path d="M773 239L706 251.1L722 283.3Z" fill="#00234b" stroke="#00234b"></path><path d="M624 554.3L617 486.1L556 529.4Z" fill="#313187" stroke="#313187"></path><path d="M624 554.3L648 516.1L617 486.1Z" fill="#00101c" stroke="#00101c"></path><path d="M111 323.7L121 321.9L95 302.9Z" fill="#00234b" stroke="#00234b"></path><path d="M178 414.9L195 483.4L227 475.6Z" fill="#00101c" stroke="#00101c"></path><path d="M663 55.7L656 34.7L585 67.9Z" fill="#002c6a" stroke="#002c6a"></path><path d="M611 17.9L636 0L554 0Z" fill="#00285b" stroke="#00285b"></path><path d="M720 51.9L663 55.7L685 96.7Z" fill="#00101c" stroke="#00101c"></path><path d="M185 481.4L195 483.4L178 414.9Z" fill="#00172b" stroke="#00172b"></path><path d="M229 503.3L254 540.3L272 534.1Z" fill="#313187" stroke="#313187"></path><path d="M329 -11.1L265 0L332 24.7Z" fill="#00101c" stroke="#00101c"></path><path d="M120 160.6L175 217.3L210 147.6Z" fill="#002c6a" stroke="#002c6a"></path><path d="M365 -23.1L265 0L329 -11.1Z" fill="#001d3b" stroke="#001d3b"></path><path d="M203 509.4L254 540.3L229 503.3Z" fill="#5f2f9d" stroke="#5f2f9d"></path><path d="M272 534.1L254 540.3L288 541.4Z" fill="#00172b" stroke="#00172b"></path><path d="M423 600L441 600L391 564.1Z" fill="#002c6a" stroke="#002c6a"></path><path d="M423 600L391 564.1L330 632.1Z" fill="#002c6a" stroke="#002c6a"></path><path d="M391 564.1L441 600L394 538.4Z" fill="#002c6a" stroke="#002c6a"></path><path d="M580 585.1L624 554.3L556 529.4Z" fill="#1a2f79" stroke="#1a2f79"></path><path d="M441 600L446 600L394 538.4Z" fill="#001d3b" stroke="#001d3b"></path><path d="M292 600L391 564.1L288 541.4Z" fill="#00285b" stroke="#00285b"></path><path d="M121 321.9L118 334.7L176 359.7Z" fill="#002c6a" stroke="#002c6a"></path><path d="M195 483.4L203 509.4L229 503.3Z" fill="#001d3b" stroke="#001d3b"></path><path d="M155 471.6L185 481.4L178 414.9Z" fill="#001d3b" stroke="#001d3b"></path><path d="M749 464.3L764 343.9L698 364Z" fill="#001d3b" stroke="#001d3b"></path><path d="M796 272.1L773 239L722 283.3Z" fill="#001d3b" stroke="#001d3b"></path><path d="M121 321.9L111 323.7L118 334.7Z" fill="#001d3b" stroke="#001d3b"></path><path d="M129 448.3L155 471.6L178 414.9Z" fill="#002c6a" stroke="#002c6a"></path><path d="M95 302.9L121 321.9L152 240.4Z" fill="#001d3b" stroke="#001d3b"></path><path d="M185 481.4L203 509.4L195 483.4Z" fill="#00172b" stroke="#00172b"></path><path d="M796 272.1L722 283.3L752 315.7Z" fill="#00234b" stroke="#00234b"></path><path d="M777 193.1L763 149.4L736 171.4Z" fill="#00285b" stroke="#00285b"></path><path d="M120 160.6L119 107.9L112 145.4Z" fill="#483193" stroke="#483193"></path><path d="M146 227L93 235.3L152 240.4Z" fill="#483193" stroke="#483193"></path><path d="M580 585.1L556 529.4L555 600Z" fill="#5f2f9d" stroke="#5f2f9d"></path><path d="M731 531.4L717 470.4L687 463.4Z" fill="#002c6a" stroke="#002c6a"></path><path d="M687 463.4L717 470.4L696 450.7Z" fill="#002c6a" stroke="#002c6a"></path><path d="M728 0L636 0L656 34.7Z" fill="#483193" stroke="#483193"></path><path d="M656 34.7L636 0L611 17.9Z" fill="#002c6a" stroke="#002c6a"></path><path d="M265 0L225 12.7L234 61.7Z" fill="#313187" stroke="#313187"></path><path d="M173 59.9L248 104.4L234 61.7Z" fill="#00234b" stroke="#00234b"></path><path d="M749 464.3L717 470.4L766 502.6Z" fill="#1a2f79" stroke="#1a2f79"></path><path d="M696 450.7L749 464.3L698 364Z" fill="#002c6a" stroke="#002c6a"></path><path d="M197 17.9L173 59.9L234 61.7Z" fill="#00234b" stroke="#00234b"></path><path d="M555 600L556 529.4L519 547.4Z" fill="#313187" stroke="#313187"></path><path d="M93 235.3L95 302.9L152 240.4Z" fill="#001d3b" stroke="#001d3b"></path><path d="M75 342.9L129 448.3L118 334.7Z" fill="#001d3b" stroke="#001d3b"></path><path d="M777 193.1L736 171.4L748 201.1Z" fill="#002c6a" stroke="#002c6a"></path><path d="M736 171.4L763 149.4L685 96.7Z" fill="#00285b" stroke="#00285b"></path><path d="M446 600L555 600L519 547.4Z" fill="#483193" stroke="#483193"></path><path d="M129 448.3L178 414.9L118 334.7Z" fill="#001d3b" stroke="#001d3b"></path><path d="M185 481.4L160 555.1L203 509.4Z" fill="#00234b" stroke="#00234b"></path><path d="M804 202.6L777 193.1L773 239Z" fill="#002c6a" stroke="#002c6a"></path><path d="M773 239L777 193.1L748 201.1Z" fill="#00285b" stroke="#00285b"></path><path d="M555 600L559 600L580 585.1Z" fill="#483193" stroke="#483193"></path><path d="M580 585.1L629 600L624 554.3Z" fill="#483193" stroke="#483193"></path><path d="M62 184.1L93 235.3L110 209.3Z" fill="#1a2f79" stroke="#1a2f79"></path><path d="M110 209.3L93 235.3L146 227Z" fill="#00234b" stroke="#00234b"></path><path d="M119 107.9L120 160.6L210 147.6Z" fill="#00101c" stroke="#00101c"></path><path d="M120 160.6L62 184.1L110 209.3Z" fill="#1a2f79" stroke="#1a2f79"></path><path d="M225 12.7L197 17.9L234 61.7Z" fill="#002c6a" stroke="#002c6a"></path><path d="M173 59.9L119 107.9L210 147.6Z" fill="#483193" stroke="#483193"></path><path d="M209 0L197 17.9L225 12.7Z" fill="#00285b" stroke="#00285b"></path><path d="M75 342.9L118 334.7L111 323.7Z" fill="#002c6a" stroke="#002c6a"></path><path d="M819 286.9L796 272.1L752 315.7Z" fill="#313187" stroke="#313187"></path><path d="M819 286.9L752 315.7L764 343.9Z" fill="#5f2f9d" stroke="#5f2f9d"></path><path d="M742 53.6L720 51.9L685 96.7Z" fill="#00234b" stroke="#00234b"></path><path d="M365 -23.1L209 0L265 0Z" fill="#001d3b" stroke="#001d3b"></path><path d="M265 0L209 0L225 12.7Z" fill="#00285b" stroke="#00285b"></path><path d="M254 540.3L191 600L260 600Z" fill="#483193" stroke="#483193"></path><path d="M288 541.4L254 540.3L260 600Z" fill="#00234b" stroke="#00234b"></path><path d="M284 600L288 541.4L260 600Z" fill="#00234b" stroke="#00234b"></path><path d="M284 600L292 600L288 541.4Z" fill="#00285b" stroke="#00285b"></path><path d="M796 272.1L798 240.4L773 239Z" fill="#7829a6" stroke="#7829a6"></path><path d="M777 193.1L804 202.6L763 149.4Z" fill="#313187" stroke="#313187"></path><path d="M107 89.9L119 107.9L123 51.9Z" fill="#313187" stroke="#313187"></path><path d="M62 184.1L69 258L93 235.3Z" fill="#002c6a" stroke="#002c6a"></path><path d="M119 107.9L173 59.9L123 51.9Z" fill="#00172b" stroke="#00172b"></path><path d="M160 555.1L185 481.4L127 534.1Z" fill="#002c6a" stroke="#002c6a"></path><path d="M731 531.4L687 463.4L648 516.1Z" fill="#00172b" stroke="#00172b"></path><path d="M717 470.4L749 464.3L696 450.7Z" fill="#00101c" stroke="#00101c"></path><path d="M127 534.1L133 474.6L45 517.4Z" fill="#5f2f9d" stroke="#5f2f9d"></path><path d="M129 448.3L133 474.6L155 471.6Z" fill="#313187" stroke="#313187"></path><path d="M62 184.1L120 160.6L112 145.4Z" fill="#7829a6" stroke="#7829a6"></path><path d="M93 235.3L69 258L95 302.9Z" fill="#00234b" stroke="#00234b"></path><path d="M95 302.9L75 342.9L111 323.7Z" fill="#7829a6" stroke="#7829a6"></path><path d="M27 328.1L75 342.9L95 302.9Z" fill="#001d3b" stroke="#001d3b"></path><path d="M863 217.3L804 202.6L798 240.4Z" fill="#1a2f79" stroke="#1a2f79"></path><path d="M798 240.4L804 202.6L773 239Z" fill="#7829a6" stroke="#7829a6"></path><path d="M763 149.4L742 53.6L685 96.7Z" fill="#00101c" stroke="#00101c"></path><path d="M191 600L254 540.3L203 509.4Z" fill="#483193" stroke="#483193"></path><path d="M820 71.7L742 53.6L763 149.4Z" fill="#483193" stroke="#483193"></path><path d="M720 51.9L726 16.9L656 34.7Z" fill="#001d3b" stroke="#001d3b"></path><path d="M260 600L330 632.1L284 600Z" fill="#001d3b" stroke="#001d3b"></path><path d="M284 600L330 632.1L292 600Z" fill="#1a2f79" stroke="#1a2f79"></path><path d="M292 600L330 632.1L391 564.1Z" fill="#483193" stroke="#483193"></path><path d="M423 600L330 632.1L441 600Z" fill="#00172b" stroke="#00172b"></path><path d="M441 600L330 632.1L446 600Z" fill="#483193" stroke="#483193"></path><path d="M446 600L330 632.1L555 600Z" fill="#5f2f9d" stroke="#5f2f9d"></path><path d="M555 600L689 612.1L559 600Z" fill="#5f2f9d" stroke="#5f2f9d"></path><path d="M559 600L629 600L580 585.1Z" fill="#002c6a" stroke="#002c6a"></path><path d="M624 554.3L680 575.1L648 516.1Z" fill="#00172b" stroke="#00172b"></path><path d="M689 612.1L629 600L559 600Z" fill="#313187" stroke="#313187"></path><path d="M123 51.9L173 59.9L120 42.7Z" fill="#483193" stroke="#483193"></path><path d="M89 117.6L88 120.4L112 145.4Z" fill="#313187" stroke="#313187"></path><path d="M855 366L819 286.9L764 343.9Z" fill="#00285b" stroke="#00285b"></path><path d="M796 272.1L819 286.9L798 240.4Z" fill="#001d3b" stroke="#001d3b"></path><path d="M89 117.6L112 145.4L119 107.9Z" fill="#00101c" stroke="#00101c"></path><path d="M107 89.9L89 117.6L119 107.9Z" fill="#00234b" stroke="#00234b"></path><path d="M742 53.6L726 16.9L720 51.9Z" fill="#5f2f9d" stroke="#5f2f9d"></path><path d="M636 0L728 0L538 -27.1Z" fill="#00101c" stroke="#00101c"></path><path d="M664 600L680 575.1L624 554.3Z" fill="#7829a6" stroke="#7829a6"></path><path d="M164 0L173 59.9L197 17.9Z" fill="#1a2f79" stroke="#1a2f79"></path><path d="M107 89.9L73 101.4L89 117.6Z" fill="#002c6a" stroke="#002c6a"></path><path d="M88 120.4L62 184.1L112 145.4Z" fill="#00101c" stroke="#00101c"></path><path d="M69 258L35 267.1L95 302.9Z" fill="#00172b" stroke="#00172b"></path><path d="M73 101.4L62 184.1L88 120.4Z" fill="#313187" stroke="#313187"></path><path d="M365 -23.1L164 0L209 0Z" fill="#7829a6" stroke="#7829a6"></path><path d="M209 0L164 0L197 17.9Z" fill="#00172b" stroke="#00172b"></path><path d="M680 575.1L731 531.4L648 516.1Z" fill="#00101c" stroke="#00101c"></path><path d="M845 427.6L855 366L764 343.9Z" fill="#5f2f9d" stroke="#5f2f9d"></path><path d="M123 51.9L92 53.6L107 89.9Z" fill="#5f2f9d" stroke="#5f2f9d"></path><path d="M164 0L120 42.7L173 59.9Z" fill="#002c6a" stroke="#002c6a"></path><path d="M629 600L664 600L624 554.3Z" fill="#001d3b" stroke="#001d3b"></path><path d="M741 600L764 533.3L731 531.4Z" fill="#5f2f9d" stroke="#5f2f9d"></path><path d="M689 612.1L664 600L629 600Z" fill="#00285b" stroke="#00285b"></path><path d="M127 534.1L185 481.4L155 471.6Z" fill="#7829a6" stroke="#7829a6"></path><path d="M260 600L191 602.1L330 632.1Z" fill="#00234b" stroke="#00234b"></path><path d="M127 534.1L155 471.6L133 474.6Z" fill="#00285b" stroke="#00285b"></path><path d="M773 0L728 0L726 16.9Z" fill="#7829a6" stroke="#7829a6"></path><path d="M726 16.9L728 0L656 34.7Z" fill="#00101c" stroke="#00101c"></path><path d="M773 0L726 16.9L742 53.6Z" fill="#483193" stroke="#483193"></path><path d="M779 491.1L766 502.6L764 533.3Z" fill="#00172b" stroke="#00172b"></path><path d="M731 531.4L766 502.6L717 470.4Z" fill="#001d3b" stroke="#001d3b"></path><path d="M798 483.4L779 491.1L764 533.3Z" fill="#1a2f79" stroke="#1a2f79"></path><path d="M766 502.6L779 491.1L749 464.3Z" fill="#00234b" stroke="#00234b"></path><path d="M62 184.1L35 267.1L69 258Z" fill="#00172b" stroke="#00172b"></path><path d="M45 517.4L133 474.6L129 448.3Z" fill="#00285b" stroke="#00285b"></path><path d="M92 53.6L73 101.4L107 89.9Z" fill="#5f2f9d" stroke="#5f2f9d"></path><path d="M89 117.6L73 101.4L88 120.4Z" fill="#002c6a" stroke="#002c6a"></path><path d="M0 258.3L0 276.9L35 267.1Z" fill="#5f2f9d" stroke="#5f2f9d"></path><path d="M17 401.6L129 448.3L75 342.9Z" fill="#1a2f79" stroke="#1a2f79"></path><path d="M191 602.1L191 600L181 600Z" fill="#00101c" stroke="#00101c"></path><path d="M160 555.1L191 600L203 509.4Z" fill="#00172b" stroke="#00172b"></path><path d="M88 0L92 53.6L120 42.7Z" fill="#001d3b" stroke="#001d3b"></path><path d="M120 42.7L92 53.6L123 51.9Z" fill="#5f2f9d" stroke="#5f2f9d"></path><path d="M181 600L191 600L160 555.1Z" fill="#313187" stroke="#313187"></path><path d="M191 600L191 602.1L260 600Z" fill="#00285b" stroke="#00285b"></path><path d="M764 533.3L766 502.6L731 531.4Z" fill="#483193" stroke="#483193"></path><path d="M779 491.1L798 483.4L749 464.3Z" fill="#1a2f79" stroke="#1a2f79"></path><path d="M741 600L731 531.4L680 575.1Z" fill="#002c6a" stroke="#002c6a"></path><path d="M35 267.1L27 328.1L95 302.9Z" fill="#002c6a" stroke="#002c6a"></path><path d="M153 597.1L181 600L160 555.1Z" fill="#00285b" stroke="#00285b"></path><path d="M191 602.1L101 600L330 632.1Z" fill="#313187" stroke="#313187"></path><path d="M882 161.7L830 118.4L804 202.6Z" fill="#5f2f9d" stroke="#5f2f9d"></path><path d="M804 202.6L830 118.4L763 149.4Z" fill="#00101c" stroke="#00101c"></path><path d="M330 632.1L689 612.1L555 600Z" fill="#483193" stroke="#483193"></path><path d="M664 600L689 612.1L680 575.1Z" fill="#002c6a" stroke="#002c6a"></path><path d="M845 427.6L764 343.9L749 464.3Z" fill="#002c6a" stroke="#002c6a"></path><path d="M867 242.1L863 217.3L798 240.4Z" fill="#5f2f9d" stroke="#5f2f9d"></path><path d="M855 366L865 309L819 286.9Z" fill="#313187" stroke="#313187"></path><path d="M365 -23.1L111 0L164 0Z" fill="#5f2f9d" stroke="#5f2f9d"></path><path d="M164 0L111 0L120 42.7Z" fill="#00101c" stroke="#00101c"></path><path d="M0 189.4L62 184.1L0 116.6Z" fill="#00234b" stroke="#00234b"></path><path d="M867 242.1L798 240.4L819 286.9Z" fill="#7829a6" stroke="#7829a6"></path><path d="M865 309L867 242.1L819 286.9Z" fill="#1a2f79" stroke="#1a2f79"></path><path d="M835 90.6L820 71.7L830 118.4Z" fill="#1a2f79" stroke="#1a2f79"></path><path d="M830 118.4L820 71.7L763 149.4Z" fill="#5f2f9d" stroke="#5f2f9d"></path><path d="M801 22.9L773 0L742 53.6Z" fill="#001d3b" stroke="#001d3b"></path><path d="M728 0L773 0L538 -27.1Z" fill="#7829a6" stroke="#7829a6"></path><path d="M101 600L153 597.1L127 534.1Z" fill="#483193" stroke="#483193"></path><path d="M127 534.1L153 597.1L160 555.1Z" fill="#1a2f79" stroke="#1a2f79"></path><path d="M181 600L153 597.1L191 602.1Z" fill="#5f2f9d" stroke="#5f2f9d"></path><path d="M867 242.1L871 235.3L863 217.3Z" fill="#5f2f9d" stroke="#5f2f9d"></path><path d="M879 137.7L835 90.6L830 118.4Z" fill="#00234b" stroke="#00234b"></path><path d="M900 231L871 235.3L867 242.1Z" fill="#5f2f9d" stroke="#5f2f9d"></path><path d="M856 420.7L845 427.6L875 464.4Z" fill="#001d3b" stroke="#001d3b"></path><path d="M798 483.4L845 427.6L749 464.3Z" fill="#1a2f79" stroke="#1a2f79"></path><path d="M855 366L871 327.7L865 309Z" fill="#313187" stroke="#313187"></path><path d="M900 399.7L871 327.7L855 366Z" fill="#5f2f9d" stroke="#5f2f9d"></path><path d="M865 309L900 291.1L867 242.1Z" fill="#7829a6" stroke="#7829a6"></path><path d="M882 161.7L804 202.6L863 217.3Z" fill="#00172b" stroke="#00172b"></path><path d="M820 71.7L801 22.9L742 53.6Z" fill="#00101c" stroke="#00101c"></path><path d="M845 427.6L861 392.6L855 366Z" fill="#001d3b" stroke="#001d3b"></path><path d="M35 267.1L0 276.9L27 328.1Z" fill="#00285b" stroke="#00285b"></path><path d="M27 328.1L17 401.6L75 342.9Z" fill="#001d3b" stroke="#001d3b"></path><path d="M0 258.3L35 267.1L0 242.1Z" fill="#00172b" stroke="#00172b"></path><path d="M35 267.1L62 184.1L0 242.1Z" fill="#1a2f79" stroke="#1a2f79"></path><path d="M0 242.1L62 184.1L0 189.4Z" fill="#313187" stroke="#313187"></path><path d="M831 72.6L801 22.9L820 71.7Z" fill="#7829a6" stroke="#7829a6"></path><path d="M857 63.9L831 72.6L835 90.6Z" fill="#7829a6" stroke="#7829a6"></path><path d="M835 90.6L831 72.6L820 71.7Z" fill="#1a2f79" stroke="#1a2f79"></path><path d="M34 26.9L73 101.4L92 53.6Z" fill="#002c6a" stroke="#002c6a"></path><path d="M0 375.7L17 401.6L27 328.1Z" fill="#483193" stroke="#483193"></path><path d="M875 464.4L845 427.6L798 483.4Z" fill="#001d3b" stroke="#001d3b"></path><path d="M845 427.6L856 420.7L861 392.6Z" fill="#00234b" stroke="#00234b"></path><path d="M0 276.9L0 327L27 328.1Z" fill="#483193" stroke="#483193"></path><path d="M689 612.1L741 600L680 575.1Z" fill="#483193" stroke="#483193"></path><path d="M764 533.3L845 547.3L798 483.4Z" fill="#00285b" stroke="#00285b"></path><path d="M365 -23.1L88 0L111 0Z" fill="#7829a6" stroke="#7829a6"></path><path d="M111 0L88 0L120 42.7Z" fill="#5f2f9d" stroke="#5f2f9d"></path><path d="M0 116.6L62 184.1L73 101.4Z" fill="#00101c" stroke="#00101c"></path><path d="M0 327L0 375.7L27 328.1Z" fill="#1a2f79" stroke="#1a2f79"></path><path d="M0 375.7L0 391.6L17 401.6Z" fill="#7829a6" stroke="#7829a6"></path><path d="M17 401.6L14 442.3L129 448.3Z" fill="#001d3b" stroke="#001d3b"></path><path d="M900 231L863 217.3L871 235.3Z" fill="#313187" stroke="#313187"></path><path d="M900 161.6L882 161.7L863 217.3Z" fill="#00285b" stroke="#00285b"></path><path d="M365 -23.1L73 0L88 0Z" fill="#313187" stroke="#313187"></path><path d="M88 0L73 0L92 53.6Z" fill="#1a2f79" stroke="#1a2f79"></path><path d="M0 427.4L14 442.3L17 401.6Z" fill="#5f2f9d" stroke="#5f2f9d"></path><path d="M882 161.7L879 137.7L830 118.4Z" fill="#001d3b" stroke="#001d3b"></path><path d="M831 72.6L857 63.9L801 22.9Z" fill="#00285b" stroke="#00285b"></path><path d="M900 310.9L865 309L871 327.7Z" fill="#313187" stroke="#313187"></path><path d="M900 310.9L900 291.1L865 309Z" fill="#002c6a" stroke="#002c6a"></path><path d="M882 161.7L900 148.3L879 137.7Z" fill="#00101c" stroke="#00101c"></path><path d="M900 310.9L871 327.7L900 399.7Z" fill="#7829a6" stroke="#7829a6"></path><path d="M900 399.7L855 366L861 392.6Z" fill="#00285b" stroke="#00285b"></path><path d="M0 375.7L-16 353L0 391.6Z" fill="#001d3b" stroke="#001d3b"></path><path d="M0 391.6L-1 418.7L17 401.6Z" fill="#00101c" stroke="#00101c"></path><path d="M0 327L-16 353L0 375.7Z" fill="#00285b" stroke="#00285b"></path><path d="M0 276.9L-16 353L0 327Z" fill="#313187" stroke="#313187"></path><path d="M0 258.3L-16 353L0 276.9Z" fill="#00172b" stroke="#00172b"></path><path d="M0 242.1L-16 353L0 258.3Z" fill="#483193" stroke="#483193"></path><path d="M0 189.4L-16 353L0 242.1Z" fill="#00234b" stroke="#00234b"></path><path d="M900 291.1L900 231L867 242.1Z" fill="#483193" stroke="#483193"></path><path d="M-16 353L-1 418.7L0 391.6Z" fill="#002c6a" stroke="#002c6a"></path><path d="M0 510.1L45 517.4L14 442.3Z" fill="#00234b" stroke="#00234b"></path><path d="M14 442.3L45 517.4L129 448.3Z" fill="#00101c" stroke="#00101c"></path><path d="M73 0L51 17.7L92 53.6Z" fill="#002c6a" stroke="#002c6a"></path><path d="M0 442.3L0 427.4L-1 418.7Z" fill="#7829a6" stroke="#7829a6"></path><path d="M-1 418.7L0 427.4L17 401.6Z" fill="#5f2f9d" stroke="#5f2f9d"></path><path d="M689 612.1L772 600L741 600Z" fill="#313187" stroke="#313187"></path><path d="M741 600L772 600L764 533.3Z" fill="#00234b" stroke="#00234b"></path><path d="M0 97.9L0 116.6L73 101.4Z" fill="#002c6a" stroke="#002c6a"></path><path d="M0 189.4L-10 50.7L-16 353Z" fill="#002c6a" stroke="#002c6a"></path><path d="M900 125.4L857 63.9L835 90.6Z" fill="#00285b" stroke="#00285b"></path><path d="M801 22.9L843 0L773 0Z" fill="#00101c" stroke="#00101c"></path><path d="M74 600L101 600L127 534.1Z" fill="#00285b" stroke="#00285b"></path><path d="M153 597.1L101 600L191 602.1Z" fill="#5f2f9d" stroke="#5f2f9d"></path><path d="M0 427.4L0 442.3L14 442.3Z" fill="#001d3b" stroke="#001d3b"></path><path d="M-12 511.4L0 442.3L-1 418.7Z" fill="#313187" stroke="#313187"></path><path d="M0 83.7L0 97.9L73 101.4Z" fill="#483193" stroke="#483193"></path><path d="M0 116.6L-10 50.7L0 189.4Z" fill="#00234b" stroke="#00234b"></path><path d="M900 231L900 161.6L863 217.3Z" fill="#002c6a" stroke="#002c6a"></path><path d="M879 137.7L900 125.4L835 90.6Z" fill="#00234b" stroke="#00234b"></path><path d="M0 0L34 26.9L51 17.7Z" fill="#00172b" stroke="#00172b"></path><path d="M51 17.7L34 26.9L92 53.6Z" fill="#002c6a" stroke="#002c6a"></path><path d="M845 547.3L875 464.4L798 483.4Z" fill="#00285b" stroke="#00285b"></path><path d="M856 420.7L900 399.7L861 392.6Z" fill="#7829a6" stroke="#7829a6"></path><path d="M900 161.6L900 148.3L882 161.7Z" fill="#5f2f9d" stroke="#5f2f9d"></path><path d="M903 413.9L900 399.7L856 420.7Z" fill="#002c6a" stroke="#002c6a"></path><path d="M34 26.9L0 83.7L73 101.4Z" fill="#313187" stroke="#313187"></path><path d="M0 97.9L-10 50.7L0 116.6Z" fill="#00172b" stroke="#00172b"></path><path d="M900 148.3L900 127.7L879 137.7Z" fill="#002c6a" stroke="#002c6a"></path><path d="M900 127.7L900 125.4L879 137.7Z" fill="#00172b" stroke="#00172b"></path><path d="M900 442.3L903 413.9L856 420.7Z" fill="#002c6a" stroke="#002c6a"></path><path d="M900 399.7L903 413.9L900 310.9Z" fill="#001d3b" stroke="#001d3b"></path><path d="M900 310.9L903 413.9L900 291.1Z" fill="#483193" stroke="#483193"></path><path d="M900 291.1L903 413.9L900 231Z" fill="#002c6a" stroke="#002c6a"></path><path d="M900 231L903 413.9L900 161.6Z" fill="#00234b" stroke="#00234b"></path><path d="M900 161.6L903 413.9L900 148.3Z" fill="#313187" stroke="#313187"></path><path d="M900 148.3L903 413.9L900 127.7Z" fill="#483193" stroke="#483193"></path><path d="M900 127.7L903 413.9L900 125.4Z" fill="#5f2f9d" stroke="#5f2f9d"></path><path d="M869 0L843 0L857 63.9Z" fill="#1a2f79" stroke="#1a2f79"></path><path d="M857 63.9L843 0L801 22.9Z" fill="#00172b" stroke="#00172b"></path><path d="M773 0L843 0L538 -27.1Z" fill="#5f2f9d" stroke="#5f2f9d"></path><path d="M772 600L845 547.3L764 533.3Z" fill="#00101c" stroke="#00101c"></path><path d="M875 464.4L900 442.3L856 420.7Z" fill="#00234b" stroke="#00234b"></path><path d="M45 517.4L74 600L127 534.1Z" fill="#002c6a" stroke="#002c6a"></path><path d="M101 600L74 600L330 632.1Z" fill="#00101c" stroke="#00101c"></path><path d="M30 586.1L74 600L45 517.4Z" fill="#001d3b" stroke="#001d3b"></path><path d="M900 471.6L900 442.3L875 464.4Z" fill="#002c6a" stroke="#002c6a"></path><path d="M-12 511.4L0 510.1L0 442.3Z" fill="#1a2f79" stroke="#1a2f79"></path><path d="M0 442.3L0 510.1L14 442.3Z" fill="#00101c" stroke="#00101c"></path><path d="M900 485.4L900 471.6L875 464.4Z" fill="#1a2f79" stroke="#1a2f79"></path><path d="M900 442.3L900 471.6L903 413.9Z" fill="#00172b" stroke="#00172b"></path><path d="M0 0L-10 50.7L34 26.9Z" fill="#7829a6" stroke="#7829a6"></path><path d="M34 26.9L-10 50.7L0 83.7Z" fill="#5f2f9d" stroke="#5f2f9d"></path><path d="M0 83.7L-10 50.7L0 97.9Z" fill="#00234b" stroke="#00234b"></path><path d="M0 510.1L6 536.3L45 517.4Z" fill="#483193" stroke="#483193"></path><path d="M871 543.3L900 485.4L875 464.4Z" fill="#483193" stroke="#483193"></path><path d="M900 471.6L900 485.4L903 413.9Z" fill="#483193" stroke="#483193"></path><path d="M878 553.1L871 543.3L845 547.3Z" fill="#1a2f79" stroke="#1a2f79"></path><path d="M845 547.3L871 543.3L875 464.4Z" fill="#001d3b" stroke="#001d3b"></path><path d="M900 51.9L869 0L857 63.9Z" fill="#7829a6" stroke="#7829a6"></path><path d="M843 0L869 0L538 -27.1Z" fill="#1a2f79" stroke="#1a2f79"></path><path d="M-16 353L-12 511.4L-1 418.7Z" fill="#00285b" stroke="#00285b"></path><path d="M0 510.1L-12 511.4L6 536.3Z" fill="#002c6a" stroke="#002c6a"></path><path d="M903 413.9L900 51.9L900 125.4Z" fill="#00234b" stroke="#00234b"></path><path d="M900 125.4L900 51.9L857 63.9Z" fill="#00172b" stroke="#00172b"></path><path d="M0 600L30 586.1L6 536.3Z" fill="#483193" stroke="#483193"></path><path d="M6 536.3L30 586.1L45 517.4Z" fill="#00172b" stroke="#00172b"></path><path d="M365 -23.1L0 0L73 0Z" fill="#00101c" stroke="#00101c"></path><path d="M73 0L0 0L51 17.7Z" fill="#1a2f79" stroke="#1a2f79"></path><path d="M873 600L878 553.1L845 547.3Z" fill="#00234b" stroke="#00234b"></path><path d="M871 543.3L900 528.1L900 485.4Z" fill="#00172b" stroke="#00172b"></path><path d="M878 553.1L900 528.1L871 543.3Z" fill="#1a2f79" stroke="#1a2f79"></path><path d="M900 485.4L900 528.1L903 413.9Z" fill="#483193" stroke="#483193"></path><path d="M903 413.9L900 0L900 51.9Z" fill="#00285b" stroke="#00285b"></path><path d="M900 51.9L900 0L869 0Z" fill="#1a2f79" stroke="#1a2f79"></path><path d="M869 0L900 0L538 -27.1Z" fill="#00285b" stroke="#00285b"></path><path d="M689 612.1L873 600L772 600Z" fill="#00101c" stroke="#00101c"></path><path d="M772 600L873 600L845 547.3Z" fill="#483193" stroke="#483193"></path><path d="M878 553.1L900 600L900 528.1Z" fill="#00285b" stroke="#00285b"></path><path d="M-23 600L0 600L6 536.3Z" fill="#5f2f9d" stroke="#5f2f9d"></path><path d="M30 586.1L0 600L74 600Z" fill="#00101c" stroke="#00101c"></path><path d="M74 600L0 600L330 632.1Z" fill="#5f2f9d" stroke="#5f2f9d"></path><path d="M689 612.1L880 600L873 600Z" fill="#313187" stroke="#313187"></path><path d="M873 600L880 600L878 553.1Z" fill="#483193" stroke="#483193"></path><path d="M689 612.1L900 600L880 600Z" fill="#7829a6" stroke="#7829a6"></path><path d="M880 600L900 600L878 553.1Z" fill="#00285b" stroke="#00285b"></path><path d="M900 528.1L900 600L903 413.9Z" fill="#00285b" stroke="#00285b"></path><path d="M-16 353L-23 600L-12 511.4Z" fill="#483193" stroke="#483193"></path><path d="M-12 511.4L-23 600L6 536.3Z" fill="#483193" stroke="#483193"></path><path d="M0 600L-23 600L330 632.1Z" fill="#1a2f79" stroke="#1a2f79"></path><path d="M-10 50.7L-23 600L-16 353Z" fill="#7829a6" stroke="#7829a6"></path></g></svg>