<svg xmlns="http://www.w3.org/2000/svg" xmlns:xlink="http://www.w3.org/1999/xlink" width="283.5" viewBox="0 0 283.5 283.5" height="283.5" version="1.0"><defs><g id="b"><path d="M 0.890625 -10.9375 L 4.578125 -10.9375 L 4.578125 -2.859375 L 9.515625 -2.859375 L 9.515625 0 L 0.890625 0 Z M 0.890625 -10.9375"/></g><g id="c"><path d="M 8.34375 -1.90625 L 4.1875 -1.90625 L 3.453125 0 L -0.296875 0 L 4.484375 -10.9375 L 8.109375 -10.9375 L 12.890625 0 L 9.078125 0 Z M 7.328125 -4.5625 L 6.265625 -7.3125 L 5.203125 -4.5625 Z M 7.328125 -4.5625"/></g><g id="e"><path d="M 6.15625 -10.9375 C 7.164062 -10.9375 8.046875 -10.769531 8.796875 -10.4375 C 9.546875 -10.101562 10.125 -9.625 10.53125 -9 C 10.9375 -8.375 11.140625 -7.644531 11.140625 -6.8125 C 11.140625 -5.976562 10.9375 -5.25 10.53125 -4.625 C 10.125 -4 9.546875 -3.519531 8.796875 -3.1875 C 8.046875 -2.851562 7.164062 -2.6875 6.15625 -2.6875 L 4.578125 -2.6875 L 4.578125 0 L 0.890625 0 L 0.890625 -10.9375 Z M 5.921875 -5.53125 C 6.421875 -5.53125 6.796875 -5.640625 7.046875 -5.859375 C 7.296875 -6.085938 7.421875 -6.40625 7.421875 -6.8125 C 7.421875 -7.21875 7.296875 -7.53125 7.046875 -7.75 C 6.796875 -7.976562 6.421875 -8.09375 5.921875 -8.09375 L 4.578125 -8.09375 L 4.578125 -5.53125 Z M 5.921875 -5.53125"/></g><g id="f"><path d="M 8.125 -5.765625 L 11.328125 -5.765625 L 11.328125 -1.140625 C 10.679688 -0.691406 9.929688 -0.347656 9.078125 -0.109375 C 8.222656 0.128906 7.382812 0.25 6.5625 0.25 C 5.394531 0.25 4.347656 0.0078125 3.421875 -0.46875 C 2.492188 -0.957031 1.765625 -1.632812 1.234375 -2.5 C 0.710938 -3.375 0.453125 -4.363281 0.453125 -5.46875 C 0.453125 -6.570312 0.710938 -7.554688 1.234375 -8.421875 C 1.765625 -9.296875 2.5 -9.972656 3.4375 -10.453125 C 4.382812 -10.941406 5.453125 -11.1875 6.640625 -11.1875 C 7.710938 -11.1875 8.671875 -11.003906 9.515625 -10.640625 C 10.367188 -10.285156 11.078125 -9.765625 11.640625 -9.078125 L 9.28125 -7 C 8.59375 -7.800781 7.773438 -8.203125 6.828125 -8.203125 C 6.015625 -8.203125 5.367188 -7.957031 4.890625 -7.46875 C 4.410156 -6.976562 4.171875 -6.3125 4.171875 -5.46875 C 4.171875 -4.644531 4.40625 -3.984375 4.875 -3.484375 C 5.351562 -2.984375 5.988281 -2.734375 6.78125 -2.734375 C 7.25 -2.734375 7.695312 -2.820312 8.125 -3 Z M 8.125 -5.765625"/></g><g id="g"><path d="M 0.890625 -10.9375 L 4.578125 -10.9375 L 4.578125 0 L 0.890625 0 Z M 0.890625 -10.9375"/></g><g id="h"><path d="M 11.671875 -10.9375 L 11.671875 0 L 8.640625 0 L 4.484375 -4.96875 L 4.484375 0 L 0.890625 0 L 0.890625 -10.9375 L 3.921875 -10.9375 L 8.078125 -5.96875 L 8.078125 -10.9375 Z M 11.671875 -10.9375"/></g><g id="i"><path d="M 6.625 0.25 C 5.445312 0.25 4.390625 0.00390625 3.453125 -0.484375 C 2.515625 -0.972656 1.78125 -1.648438 1.25 -2.515625 C 0.71875 -3.390625 0.453125 -4.375 0.453125 -5.46875 C 0.453125 -6.5625 0.71875 -7.539062 1.25 -8.40625 C 1.78125 -9.28125 2.515625 -9.960938 3.453125 -10.453125 C 4.390625 -10.941406 5.445312 -11.1875 6.625 -11.1875 C 7.800781 -11.1875 8.859375 -10.941406 9.796875 -10.453125 C 10.734375 -9.960938 11.46875 -9.28125 12 -8.40625 C 12.53125 -7.539062 12.796875 -6.5625 12.796875 -5.46875 C 12.796875 -4.375 12.53125 -3.390625 12 -2.515625 C 11.46875 -1.648438 10.734375 -0.972656 9.796875 -0.484375 C 8.859375 0.00390625 7.800781 0.25 6.625 0.25 Z M 6.625 -2.734375 C 7.082031 -2.734375 7.492188 -2.84375 7.859375 -3.0625 C 8.234375 -3.289062 8.53125 -3.609375 8.75 -4.015625 C 8.96875 -4.429688 9.078125 -4.914062 9.078125 -5.46875 C 9.078125 -6.019531 8.96875 -6.5 8.75 -6.90625 C 8.53125 -7.320312 8.234375 -7.640625 7.859375 -7.859375 C 7.492188 -8.085938 7.082031 -8.203125 6.625 -8.203125 C 6.164062 -8.203125 5.75 -8.085938 5.375 -7.859375 C 5.007812 -7.640625 4.71875 -7.320312 4.5 -6.90625 C 4.28125 -6.5 4.171875 -6.019531 4.171875 -5.46875 C 4.171875 -4.914062 4.28125 -4.429688 4.5 -4.015625 C 4.71875 -3.609375 5.007812 -3.289062 5.375 -3.0625 C 5.75 -2.84375 6.164062 -2.734375 6.625 -2.734375 Z M 6.625 -2.734375"/></g><g id="j"><path d="M 9.984375 -2.78125 L 9.984375 0 L 0.890625 0 L 0.890625 -10.9375 L 9.78125 -10.9375 L 9.78125 -8.15625 L 4.515625 -8.15625 L 4.515625 -6.875 L 9.140625 -6.875 L 9.140625 -4.21875 L 4.515625 -4.21875 L 4.515625 -2.78125 Z M 9.984375 -2.78125"/></g><g id="k"><path d="M 7.8125 0 L 5.921875 -2.921875 L 4.078125 0 L -0.125 0 L 3.828125 -5.515625 L 0.015625 -10.9375 L 4.15625 -10.9375 L 6.015625 -8.1875 L 7.828125 -10.9375 L 11.796875 -10.9375 L 8 -5.65625 L 12.03125 0 Z M 7.8125 0"/></g><g id="l"><path d="M 4.96875 0.25 C 4.0625 0.25 3.175781 0.148438 2.3125 -0.046875 C 1.457031 -0.253906 0.753906 -0.53125 0.203125 -0.875 L 1.390625 -3.5625 C 1.910156 -3.257812 2.492188 -3.015625 3.140625 -2.828125 C 3.785156 -2.648438 4.40625 -2.5625 5 -2.5625 C 5.507812 -2.5625 5.875 -2.609375 6.09375 -2.703125 C 6.3125 -2.804688 6.421875 -2.957031 6.421875 -3.15625 C 6.421875 -3.382812 6.273438 -3.554688 5.984375 -3.671875 C 5.703125 -3.785156 5.234375 -3.910156 4.578125 -4.046875 C 3.734375 -4.222656 3.03125 -4.410156 2.46875 -4.609375 C 1.90625 -4.816406 1.414062 -5.148438 1 -5.609375 C 0.582031 -6.078125 0.375 -6.707031 0.375 -7.5 C 0.375 -8.1875 0.566406 -8.8125 0.953125 -9.375 C 1.335938 -9.9375 1.910156 -10.378906 2.671875 -10.703125 C 3.441406 -11.023438 4.375 -11.1875 5.46875 -11.1875 C 6.21875 -11.1875 6.953125 -11.101562 7.671875 -10.9375 C 8.398438 -10.78125 9.039062 -10.546875 9.59375 -10.234375 L 8.484375 -7.5625 C 7.410156 -8.101562 6.394531 -8.375 5.4375 -8.375 C 4.488281 -8.375 4.015625 -8.144531 4.015625 -7.6875 C 4.015625 -7.46875 4.15625 -7.300781 4.4375 -7.1875 C 4.71875 -7.082031 5.179688 -6.96875 5.828125 -6.84375 C 6.660156 -6.6875 7.363281 -6.503906 7.9375 -6.296875 C 8.507812 -6.097656 9.003906 -5.769531 9.421875 -5.3125 C 9.847656 -4.851562 10.0625 -4.226562 10.0625 -3.4375 C 10.0625 -2.75 9.867188 -2.125 9.484375 -1.5625 C 9.097656 -1.007812 8.519531 -0.566406 7.75 -0.234375 C 6.988281 0.0859375 6.0625 0.25 4.96875 0.25 Z M 4.96875 0.25"/></g><g id="m"><path d="M 3.265625 -8.078125 L 0.0625 -8.078125 L 0.0625 -10.9375 L 10.15625 -10.9375 L 10.15625 -8.078125 L 6.953125 -8.078125 L 6.953125 0 L 3.265625 0 Z M 3.265625 -8.078125"/></g><g id="n"><path d="M 15.6875 0.640625 C 11.382812 0.640625 8.035156 -0.515625 5.640625 -2.828125 C 3.242188 -5.148438 2.046875 -8.40625 2.046875 -12.59375 L 2.046875 -28 L 11.484375 -28 L 11.484375 -12.875 C 11.484375 -10.820312 11.847656 -9.328125 12.578125 -8.390625 C 13.316406 -7.460938 14.378906 -7 15.765625 -7 C 17.148438 -7 18.207031 -7.460938 18.9375 -8.390625 C 19.675781 -9.328125 20.046875 -10.820312 20.046875 -12.875 L 20.046875 -28 L 29.3125 -28 L 29.3125 -12.59375 C 29.3125 -8.40625 28.113281 -5.148438 25.71875 -2.828125 C 23.320312 -0.515625 19.976562 0.640625 15.6875 0.640625 Z M 15.6875 0.640625"/></g><g id="o"><path d="M 15.765625 -28 C 18.347656 -28 20.597656 -27.570312 22.515625 -26.71875 C 24.441406 -25.863281 25.921875 -24.632812 26.953125 -23.03125 C 27.992188 -21.4375 28.515625 -19.570312 28.515625 -17.4375 C 28.515625 -15.300781 27.992188 -13.429688 26.953125 -11.828125 C 25.921875 -10.234375 24.441406 -9.007812 22.515625 -8.15625 C 20.597656 -7.300781 18.347656 -6.875 15.765625 -6.875 L 11.71875 -6.875 L 11.71875 0 L 2.28125 0 L 2.28125 -28 Z M 15.15625 -14.15625 C 16.4375 -14.15625 17.394531 -14.441406 18.03125 -15.015625 C 18.675781 -15.585938 19 -16.394531 19 -17.4375 C 19 -18.476562 18.675781 -19.285156 18.03125 -19.859375 C 17.394531 -20.429688 16.4375 -20.71875 15.15625 -20.71875 L 11.71875 -20.71875 L 11.71875 -14.15625 Z M 15.15625 -14.15625"/></g><g id="p"><path d="M 12.71875 0.640625 C 10.394531 0.640625 8.132812 0.378906 5.9375 -0.140625 C 3.738281 -0.660156 1.929688 -1.359375 0.515625 -2.234375 L 3.5625 -9.125 C 4.894531 -8.34375 6.382812 -7.71875 8.03125 -7.25 C 9.6875 -6.789062 11.273438 -6.5625 12.796875 -6.5625 C 14.109375 -6.5625 15.039062 -6.6875 15.59375 -6.9375 C 16.15625 -7.1875 16.4375 -7.566406 16.4375 -8.078125 C 16.4375 -8.660156 16.066406 -9.097656 15.328125 -9.390625 C 14.597656 -9.691406 13.394531 -10.015625 11.71875 -10.359375 C 9.5625 -10.816406 7.757812 -11.300781 6.3125 -11.8125 C 4.875 -12.332031 3.617188 -13.1875 2.546875 -14.375 C 1.484375 -15.5625 0.953125 -17.171875 0.953125 -19.203125 C 0.953125 -20.960938 1.445312 -22.5625 2.4375 -24 C 3.425781 -25.4375 4.898438 -26.566406 6.859375 -27.390625 C 8.816406 -28.222656 11.195312 -28.640625 14 -28.640625 C 15.914062 -28.640625 17.800781 -28.429688 19.65625 -28.015625 C 21.507812 -27.609375 23.144531 -27.003906 24.5625 -26.203125 L 21.71875 -19.359375 C 18.96875 -20.742188 16.367188 -21.4375 13.921875 -21.4375 C 11.492188 -21.4375 10.28125 -20.851562 10.28125 -19.6875 C 10.28125 -19.125 10.640625 -18.703125 11.359375 -18.421875 C 12.078125 -18.140625 13.265625 -17.835938 14.921875 -17.515625 C 17.054688 -17.117188 18.851562 -16.660156 20.3125 -16.140625 C 21.78125 -15.617188 23.054688 -14.769531 24.140625 -13.59375 C 25.222656 -12.425781 25.765625 -10.828125 25.765625 -8.796875 C 25.765625 -7.035156 25.269531 -5.441406 24.28125 -4.015625 C 23.289062 -2.585938 21.816406 -1.453125 19.859375 -0.609375 C 17.898438 0.222656 15.519531 0.640625 12.71875 0.640625 Z M 12.71875 0.640625"/></g><g id="q"><path d="M 0.875 -28 L 11.6875 -28 L 9.875 -10.71875 L 2.6875 -10.71875 Z M 6.28125 0.40625 C 4.726562 0.40625 3.457031 -0.0625 2.46875 -1 C 1.488281 -1.9375 1 -3.070312 1 -4.40625 C 1 -5.757812 1.488281 -6.882812 2.46875 -7.78125 C 3.457031 -8.675781 4.726562 -9.125 6.28125 -9.125 C 7.820312 -9.125 9.085938 -8.675781 10.078125 -7.78125 C 11.066406 -6.882812 11.5625 -5.757812 11.5625 -4.40625 C 11.5625 -3.070312 11.066406 -1.9375 10.078125 -1 C 9.085938 -0.0625 7.820312 0.40625 6.28125 0.40625 Z M 6.28125 0.40625"/></g><clipPath id="a"><path d="M 0 0 L 283 0 L 283 283 L 0 283 Z M 0 0"/></clipPath></defs><g clip-path="url(#a)"><path fill="#FFF" d="M 0 0 L 283.5 0 L 283.5 290.25 L 0 290.25 Z M 0 0"/><path fill="#FFF" d="M 0 0 L 283.5 0 L 283.5 283.5 L 0 283.5 Z M 0 0"/><path fill="#FA00FF" d="M 0 0 L 283.5 0 L 283.5 283.5 L 0 283.5 Z M 0 0"/></g><path fill="#00BAFF" d="M 207.90625 155.679688 L 142.007812 49.136719 L 76.105469 155.679688 Z M 207.90625 155.679688"/><path fill="#FA00FF" d="M 136.820312 57.523438 C 136.222656 69.730469 137.511719 82.753906 140.945312 95.925781 C 147.574219 121.332031 160.902344 142.363281 176.980469 155.679688 L 207.90625 155.679688 L 142.007812 49.136719 L 136.820312 57.523438"/><path d="M 83.484375 151.566406 L 200.53125 151.566406 L 142.007812 56.949219 Z M 207.90625 159.789062 L 76.105469 159.789062 C 74.617188 159.789062 73.242188 158.980469 72.519531 157.679688 C 71.792969 156.378906 71.828125 154.785156 72.613281 153.519531 L 138.511719 46.976562 C 139.265625 45.761719 140.585938 45.023438 142.011719 45.023438 C 143.433594 45.023438 144.757812 45.761719 145.507812 46.976562 L 211.410156 153.519531 C 212.191406 154.785156 212.226562 156.378906 211.5 157.679688 C 210.777344 158.980469 209.402344 159.789062 207.910156 159.789062"/><path d="M 137 82.144531 L 152.023438 82.144531 L 137 112.195312 L 157.035156 102.179688 L 147.015625 132.230469 L 152.023438 132.230469 L 142.007812 147.253906 L 137 132.230469 L 142.007812 132.230469 L 147.015625 117.203125 L 126.984375 122.214844 L 137 82.144531"/><g><use x="66.819" y="227.112" xmlns:xlink="http://www.w3.org/1999/xlink" xlink:href="#b" xlink:type="simple" xlink:actuate="onLoad" xlink:show="embed"/></g><g><use x="78.783" y="227.112" xmlns:xlink="http://www.w3.org/1999/xlink" xlink:href="#c" xlink:type="simple" xlink:actuate="onLoad" xlink:show="embed"/></g><g><use x="93.7" y="227.112" xmlns:xlink="http://www.w3.org/1999/xlink" xlink:href="#d" xlink:type="simple" xlink:actuate="onLoad" xlink:show="embed"/></g><g><use x="100.714" y="227.112" xmlns:xlink="http://www.w3.org/1999/xlink" xlink:href="#e" xlink:type="simple" xlink:actuate="onLoad" xlink:show="embed"/></g><g><use x="114.646" y="227.112" xmlns:xlink="http://www.w3.org/1999/xlink" xlink:href="#c" xlink:type="simple" xlink:actuate="onLoad" xlink:show="embed"/></g><g><use x="129.563" y="227.112" xmlns:xlink="http://www.w3.org/1999/xlink" xlink:href="#f" xlink:type="simple" xlink:actuate="onLoad" xlink:show="embed"/></g><g><use x="143.901" y="227.112" xmlns:xlink="http://www.w3.org/1999/xlink" xlink:href="#g" xlink:type="simple" xlink:actuate="onLoad" xlink:show="embed"/></g><g><use x="151.696" y="227.112" xmlns:xlink="http://www.w3.org/1999/xlink" xlink:href="#h" xlink:type="simple" xlink:actuate="onLoad" xlink:show="embed"/></g><g><use x="166.581" y="227.112" xmlns:xlink="http://www.w3.org/1999/xlink" xlink:href="#c" xlink:type="simple" xlink:actuate="onLoad" xlink:show="embed"/></g><g><use x="181.498" y="227.112" xmlns:xlink="http://www.w3.org/1999/xlink" xlink:href="#d" xlink:type="simple" xlink:actuate="onLoad" xlink:show="embed"/></g><g><use x="188.511" y="227.112" xmlns:xlink="http://www.w3.org/1999/xlink" xlink:href="#h" xlink:type="simple" xlink:actuate="onLoad" xlink:show="embed"/></g><g><use x="203.396" y="227.112" xmlns:xlink="http://www.w3.org/1999/xlink" xlink:href="#i" xlink:type="simple" xlink:actuate="onLoad" xlink:show="embed"/></g><g><use x="106.478" y="248.877" xmlns:xlink="http://www.w3.org/1999/xlink" xlink:href="#j" xlink:type="simple" xlink:actuate="onLoad" xlink:show="embed"/></g><g><use x="119.318" y="248.877" xmlns:xlink="http://www.w3.org/1999/xlink" xlink:href="#k" xlink:type="simple" xlink:actuate="onLoad" xlink:show="embed"/></g><g><use x="133.547" y="248.877" xmlns:xlink="http://www.w3.org/1999/xlink" xlink:href="#g" xlink:type="simple" xlink:actuate="onLoad" xlink:show="embed"/></g><g><use x="141.342" y="248.877" xmlns:xlink="http://www.w3.org/1999/xlink" xlink:href="#l" xlink:type="simple" xlink:actuate="onLoad" xlink:show="embed"/></g><g><use x="153.931" y="248.877" xmlns:xlink="http://www.w3.org/1999/xlink" xlink:href="#m" xlink:type="simple" xlink:actuate="onLoad" xlink:show="embed"/></g><g><use x="166.473" y="248.877" xmlns:xlink="http://www.w3.org/1999/xlink" xlink:href="#j" xlink:type="simple" xlink:actuate="onLoad" xlink:show="embed"/></g><g><use x="92.582" y="202.517" xmlns:xlink="http://www.w3.org/1999/xlink" xlink:href="#n" xlink:type="simple" xlink:actuate="onLoad" xlink:show="embed"/></g><g><use x="123.934" y="202.517" xmlns:xlink="http://www.w3.org/1999/xlink" xlink:href="#o" xlink:type="simple" xlink:actuate="onLoad" xlink:show="embed"/></g><g><use x="153.646" y="202.517" xmlns:xlink="http://www.w3.org/1999/xlink" xlink:href="#p" xlink:type="simple" xlink:actuate="onLoad" xlink:show="embed"/></g><g><use x="179.919" y="202.517" xmlns:xlink="http://www.w3.org/1999/xlink" xlink:href="#q" xlink:type="simple" xlink:actuate="onLoad" xlink:show="embed"/></g></svg>